<?xml version="1.0" encoding="UTF-8" standalone="no"?>
<!DOCTYPE svg PUBLIC "-//W3C//DTD SVG 1.1//EN"
 "http://www.w3.org/Graphics/SVG/1.1/DTD/svg11.dtd">
<!-- Generated by graphviz version 2.43.0 (0)
 -->
<!-- Title: %3 Pages: 1 -->
<svg width="440pt" height="433pt"
 viewBox="0.00 0.00 439.88 432.92" xmlns="http://www.w3.org/2000/svg" xmlns:xlink="http://www.w3.org/1999/xlink">
<g id="graph0" class="graph" transform="scale(1 1) rotate(0) translate(4 428.92)">
<title>%3</title>
<polygon fill="white" stroke="transparent" points="-4,4 -4,-428.92 435.88,-428.92 435.88,4 -4,4"/>
<!-- 1 -->
<g id="node1" class="node">
<title>1</title>
<ellipse fill="none" stroke="black" cx="246.88" cy="-371.1" rx="53.64" ry="53.64"/>
<text text-anchor="middle" x="246.88" y="-367.4" font-family="Times,serif" font-size="14.00">Marie Curie</text>
</g>
<!-- 2 -->
<g id="node2" class="node">
<title>2</title>
<ellipse fill="none" stroke="black" cx="54.88" cy="-211.4" rx="54.75" ry="54.75"/>
<text text-anchor="middle" x="54.88" y="-207.7" font-family="Times,serif" font-size="14.00">Pierre Curie</text>
</g>
<!-- 1&#45;&gt;2 -->
<g id="edge4" class="edge">
<title>1&#45;&gt;2</title>
<path fill="none" stroke="black" d="M193.16,-365.81C148.97,-359.16 88.76,-342.24 57.88,-299.28 52.99,-292.49 50.08,-284.56 48.52,-276.31"/>
<polygon fill="black" stroke="black" points="51.96,-275.62 47.24,-266.14 45.02,-276.5 51.96,-275.62"/>
<text text-anchor="middle" x="118.38" y="-288.08" font-family="Times,serif" font-size="14.00">IS_MARRIED_TO</text>
</g>
<!-- 3 -->
<g id="node3" class="node">
<title>3</title>
<ellipse fill="none" stroke="black" cx="184.88" cy="-211.4" rx="43.59" ry="43.59"/>
<text text-anchor="middle" x="184.88" y="-207.7" font-family="Times,serif" font-size="14.00">Polonium</text>
</g>
<!-- 1&#45;&gt;3 -->
<g id="edge1" class="edge">
<title>1&#45;&gt;3</title>
<path fill="none" stroke="black" d="M207.48,-334.05C198.72,-323.75 190.64,-311.88 185.88,-299.28 181.83,-288.58 180.1,-276.61 179.66,-265.04"/>
<polygon fill="black" stroke="black" points="183.16,-265 179.58,-255.03 176.16,-265.06 183.16,-265"/>
<text text-anchor="middle" x="236.38" y="-288.08" font-family="Times,serif" font-size="14.00">DISCOVERED</text>
</g>
<!-- 4 -->
<g id="node4" class="node">
<title>4</title>
<ellipse fill="none" stroke="black" cx="308.88" cy="-211.4" rx="37.43" ry="37.43"/>
<text text-anchor="middle" x="308.88" y="-207.7" font-family="Times,serif" font-size="14.00">Radium</text>
</g>
<!-- 1&#45;&gt;4 -->
<g id="edge2" class="edge">
<title>1&#45;&gt;4</title>
<path fill="none" stroke="black" d="M274.75,-324.89C279.2,-316.56 283.46,-307.8 286.88,-299.28 292.04,-286.39 296.28,-271.93 299.61,-258.56"/>
<polygon fill="black" stroke="black" points="303.07,-259.13 301.98,-248.59 296.26,-257.51 303.07,-259.13"/>
<text text-anchor="middle" x="342.38" y="-288.08" font-family="Times,serif" font-size="14.00">DISCOVERED</text>
</g>
<!-- 5 -->
<g id="node5" class="node">
<title>5</title>
<ellipse fill="none" stroke="black" cx="239.88" cy="-52.76" rx="52.53" ry="52.53"/>
<text text-anchor="middle" x="239.88" y="-49.06" font-family="Times,serif" font-size="14.00">Nobel Prize</text>
</g>
<!-- 1&#45;&gt;5 -->
<g id="edge3" class="edge">
<title>1&#45;&gt;5</title>
<path fill="none" stroke="black" d="M300.17,-362.39C346.22,-352.53 404.32,-330.79 396.88,-284.28 387.42,-225.26 387.61,-206.54 354.88,-156.53 338.09,-130.89 313.33,-107.64 291.08,-89.76"/>
<polygon fill="black" stroke="black" points="293.04,-86.85 283.02,-83.42 288.72,-92.35 293.04,-86.85"/>
<text text-anchor="middle" x="412.88" y="-207.7" font-family="Times,serif" font-size="14.00">WON</text>
</g>
<!-- 2&#45;&gt;5 -->
<g id="edge5" class="edge">
<title>2&#45;&gt;5</title>
<path fill="none" stroke="black" d="M96.39,-175.25C124.85,-151.16 162.67,-119.13 192.34,-94.02"/>
<polygon fill="black" stroke="black" points="194.71,-96.59 200.08,-87.46 190.19,-91.25 194.71,-96.59"/>
<text text-anchor="middle" x="172.88" y="-127.33" font-family="Times,serif" font-size="14.00">WON</text>
</g>
</g>
</svg>
